HIERARCHY
ROOT Hips
{
	OFFSET 0.000000 0.000000 0.000000
	CHANNELS 6 Xposition Yposition Zposition Yrotation Xrotation Zrotation
	JOINT Chest
	{
		OFFSET 0.000000 -0.009281 11.569106
		CHANNELS 3 Yrotation Xrotation Zrotation
		JOINT Chest2
		{
			OFFSET -0.000000 0.016865 9.269641
			CHANNELS 3 Yrotation Xrotation Zrotation
			JOINT Chest3
			{
				OFFSET -0.000000 0.000001 8.374491
				CHANNELS 3 Yrotation Xrotation Zrotation
				JOINT Chest4
				{
					OFFSET -0.000000 0.000001 8.374493
					CHANNELS 3 Yrotation Xrotation Zrotation
					JOINT Neck
					{
						OFFSET -0.000000 0.000002 12.152554
						CHANNELS 3 Yrotation Xrotation Zrotation
						JOINT Head
						{
							OFFSET -0.000000 0.040101 7.802319
							CHANNELS 3 Yrotation Xrotation Zrotation
							End Site
							{
								OFFSET -0.000000 0.020947 14.853096
							}
						}
					}
					JOINT RightCollar
					{
						OFFSET 2.894404 0.000001 6.791374
						CHANNELS 3 Yrotation Xrotation Zrotation
						JOINT RightShoulder
						{
							OFFSET 13.574684 0.000001 0.000000
							CHANNELS 3 Yrotation Xrotation Zrotation
							JOINT RightElbow
							{
								OFFSET 23.923903 0.000002 0.000000
								CHANNELS 3 Yrotation Xrotation Zrotation
								JOINT RightWrist
								{
									OFFSET 19.846718 0.012767 0.000000
									CHANNELS 3 Yrotation Xrotation Zrotation
									End Site
									{
										OFFSET 14.973145 0.000001 0.000000
									}
								}
							}
						}
					}
					JOINT LeftCollar
					{
						OFFSET -2.894404 0.000001 6.791374
						CHANNELS 3 Yrotation Xrotation Zrotation
						JOINT LeftShoulder
						{
							OFFSET -13.574684 -0.000001 0.000000
							CHANNELS 3 Yrotation Xrotation Zrotation
							JOINT LeftElbow
							{
								OFFSET -23.923903 -0.000002 0.000000
								CHANNELS 3 Yrotation Xrotation Zrotation
								JOINT LeftWrist
								{
									OFFSET -19.846718 0.012763 0.000000
									CHANNELS 3 Yrotation Xrotation Zrotation
									End Site
									{
										OFFSET -14.973145 -0.000001 0.000000
									}
								}
							}
						}
					}
				}
			}
		}
	}
	JOINT RightHip
	{
		OFFSET 9.469263 0.004643 0.045487
		CHANNELS 3 Yrotation Xrotation Zrotation
		JOINT RightKnee
		{
			OFFSET 0.000000 0.002661 -40.478676
			CHANNELS 3 Yrotation Xrotation Zrotation
			JOINT RightAnkle
			{
				OFFSET 0.000000 0.049106 -35.224068
				CHANNELS 3 Yrotation Xrotation Zrotation
				JOINT RightToe
				{
					OFFSET -0.000001 12.539529 -6.151390
					CHANNELS 3 Yrotation Xrotation Zrotation
					End Site
					{
						OFFSET -0.000001 5.044994 -1.291870
					}
				}
			}
		}
	}
	JOINT LeftHip
	{
		OFFSET -9.469263 0.004641 0.045487
		CHANNELS 3 Yrotation Xrotation Zrotation
		JOINT LeftKnee
		{
			OFFSET 0.000000 0.002661 -40.478676
			CHANNELS 3 Yrotation Xrotation Zrotation
			JOINT LeftAnkle
			{
				OFFSET 0.000000 0.049106 -35.224068
				CHANNELS 3 Yrotation Xrotation Zrotation
				JOINT LeftToe
				{
					OFFSET -0.000001 12.539529 -6.151390
					CHANNELS 3 Yrotation Xrotation Zrotation
					End Site
					{
						OFFSET -0.000001 5.044994 -1.291870
					}
				}
			}
		}
	}
}
MOTION
Frames: 15
Frame Time: 0.016667
-5.505300 9.124361 82.458694 -4.200137 0.569945 -103.743313 -1.570292 -5.607782 0.196266 -0.715786 -2.496847 0.191777 -0.715786 -2.496847 0.191777 -0.535970 -1.872863 0.140885 1.701970 -15.161488 -2.726831 2.157663 8.037179 -4.461724 9.722979 8.570528 0.441846 42.617078 -15.166727 -17.499559 -43.642341 -62.711942 107.314409 -63.441140 37.768597 35.244066 -8.879480 4.816439 -5.320863 -40.565853 -14.108207 21.494184 18.174027 -61.520108 -79.735560 37.413191 26.612567 -67.733750 5.346616 -1.687561 -14.397438 4.115512 -2.904048 -4.036905 -5.496535 4.508493 -4.159892 -0.016681 -0.019008 -0.162735 2.658263 0.046450 14.480558 -7.081309 -33.148534 23.375950 36.825552 -50.782057 -14.702964 -84.211711 65.829131 -60.677311 
-5.480208 9.110622 82.453217 -4.166324 0.567529 -103.730254 -1.563961 -5.593272 0.199955 -0.716626 -2.487244 0.193194 -0.716626 -2.487243 0.193193 -0.536599 -1.865664 0.141954 1.701541 -15.188189 -2.732604 2.155284 7.987549 -4.472541 9.721177 8.554178 0.444332 42.624468 -15.171112 -17.491450 -43.622687 -62.716730 107.294205 -63.428197 37.758461 35.253984 -8.883487 4.802272 -5.316947 -40.565976 -14.102028 21.501538 18.149945 -61.523209 -79.707966 37.407385 26.628377 -67.737322 5.385613 -1.704223 -14.388468 4.097701 -2.834958 -4.094431 -5.519244 4.510890 -4.169863 -0.006366 -0.025675 -0.152937 2.687717 0.072659 14.535585 -7.050834 -33.191366 23.233218 36.692429 -50.802353 -14.588516 -84.195195 65.844499 -60.676546 
-5.456747 9.100475 82.450661 -4.112954 0.582697 -103.734680 -1.568040 -5.562990 0.218119 -0.718577 -2.474811 0.195495 -0.718577 -2.474811 0.195494 -0.538057 -1.856341 0.143686 1.698769 -15.214322 -2.736708 2.149144 7.938954 -4.481108 9.721434 8.543135 0.441246 42.633617 -15.168961 -17.479627 -43.632218 -62.734919 107.294431 -63.422364 37.759601 35.262576 -8.888694 4.795869 -5.309451 -40.566747 -14.105996 21.512485 18.124723 -61.522096 -79.679976 37.397663 26.651156 -67.740006 5.398211 -1.683896 -14.348937 4.084266 -2.794021 -4.151510 -5.529645 4.513532 -4.151355 -0.003023 -0.025357 -0.150634 2.692305 0.112486 14.605115 -7.004259 -33.211617 23.113198 36.588896 -50.815040 -14.511439 -84.172915 65.855830 -60.664709 
-5.435462 9.099593 82.450684 -4.060173 0.609945 -103.790031 -1.580335 -5.525604 0.278412 -0.719750 -2.463151 0.197534 -0.719750 -2.463151 0.197535 -0.538933 -1.847600 0.145225 1.687535 -15.237602 -2.737005 2.128549 7.895484 -4.485756 9.709960 8.531157 0.437075 42.646202 -15.170504 -17.463580 -43.644297 -62.768708 107.302019 -63.426810 37.769693 35.258601 -8.906212 4.809313 -5.298342 -40.568796 -14.105937 21.542756 18.101118 -61.523605 -79.652409 37.375584 26.654171 -67.743189 5.386701 -1.643171 -14.252811 4.076566 -2.784725 -4.173222 -5.550844 4.517518 -4.199620 0.007816 -0.024537 -0.127071 2.679032 0.145424 14.696593 -6.984634 -33.221111 23.114817 36.555521 -50.738750 -14.499651 -84.071029 65.842457 -60.558260 
-5.414493 9.102316 82.451050 -4.015128 0.634469 -103.806048 -1.582430 -5.503671 0.293479 -0.720664 -2.456584 0.196326 -0.720664 -2.456584 0.196328 -0.539626 -1.842673 0.144323 1.668612 -15.247036 -2.730224 2.095917 7.877594 -4.480123 9.701460 8.529554 0.452755 42.658104 -15.181115 -17.461722 -43.616355 -62.791760 107.278510 -63.426011 37.773504 35.255333 -8.911210 4.815150 -5.282438 -40.581798 -14.068211 21.566432 18.088322 -61.526590 -79.638011 37.355203 26.627708 -67.748940 5.386387 -1.614836 -14.220963 4.047605 -2.759682 -4.185293 -5.551094 4.513058 -4.196534 0.012738 -0.024228 -0.110095 2.668311 0.169959 14.730715 -7.000221 -33.224943 23.214053 36.582032 -50.643548 -14.558755 -83.996519 65.837921 -60.490068 
-5.387334 9.102268 82.450523 -3.983009 0.651595 -103.809108 -1.581112 -5.502399 0.297518 -0.721706 -2.452958 0.196722 -0.721706 -2.452958 0.196724 -0.540407 -1.839954 0.144622 1.649353 -15.242552 -2.723625 2.062276 7.885551 -4.475044 9.704973 8.531670 0.464667 42.662229 -15.197106 -17.474028 -43.562875 -62.798549 107.235473 -63.419030 37.764973 35.259667 -8.900481 4.816806 -5.267215 -40.598614 -14.023615 21.578775 18.113073 -61.525224 -79.654595 37.332373 26.585733 -67.757198 5.399808 -1.628319 -14.245352 4.012816 -2.693334 -4.185340 -5.542099 4.504754 -4.143421 0.013195 -0.032092 -0.095254 2.671908 0.175009 14.733343 -7.039099 -33.219762 23.334136 36.607239 -50.566704 -14.624878 -83.944446 65.843085 -60.453075 
-5.353920 9.101419 82.449440 -3.957191 0.665617 -103.811137 -1.580177 -5.515858 0.297629 -0.721169 -2.454670 0.197250 -0.721169 -2.454670 0.197249 -0.540001 -1.841238 0.145016 1.629979 -15.223623 -2.713384 2.029456 7.920343 -4.463291 9.703694 8.525522 0.469132 42.665624 -15.195229 -17.475659 -43.525480 -62.793932 107.208589 -63.412453 37.750517 35.268010 -8.887978 4.807176 -5.261471 -40.608046 -13.976479 21.571996 18.156344 -61.515470 -79.689852 37.321445 26.548232 -67.760039 5.411731 -1.655677 -14.286363 3.985827 -2.620810 -4.187369 -5.526884 4.505411 -4.128836 0.006055 -0.043344 -0.092495 2.680509 0.168177 14.719818 -7.089563 -33.208496 23.405638 36.582012 -50.537895 -14.632902 -83.919310 65.861158 -60.450357 
-5.322227 9.100155 82.447884 -3.925397 0.676469 -103.819900 -1.577184 -5.524864 0.303978 -0.720276 -2.459246 0.197729 -0.720276 -2.459246 0.197730 -0.539328 -1.844670 0.145374 1.613794 -15.199293 -2.702112 2.002856 7.965226 -4.448455 9.701430 8.510386 0.465236 42.666498 -15.175191 -17.464736 -43.516177 -62.795352 107.210201 -63.409414 37.739930 35.278829 -8.873739 4.784579 -5.263419 -40.614794 -13.965249 21.547440 18.182838 -61.486579 -79.709462 37.313508 26.535635 -67.753311 5.420232 -1.669894 -14.287154 3.969433 -2.563125 -4.205919 -5.517470 4.507035 -4.134855 0.002062 -0.050014 -0.087489 2.700845 0.169686 14.712603 -7.154688 -33.203493 23.405434 36.498075 -50.558590 -14.552025 -83.919188 65.881682 -60.471387 
-5.296817 9.102327 82.446060 -3.892524 0.685339 -103.831136 -1.571435 -5.527606 0.312078 -0.717449 -2.465311 0.196438 -0.717449 -2.465311 0.196438 -0.537211 -1.849219 0.144409 1.600846 -15.178407 -2.689598 1.982862 8.003827 -4.430055 9.695236 8.491176 0.466886 42.666891 -15.161075 -17.454538 -43.493156 -62.791917 107.201561 -63.405657 37.735357 35.290419 -8.868766 4.771162 -5.258266 -40.619746 -13.998129 21.517391 18.159137 -61.457748 -79.678822 37.312179 26.529542 -67.755770 5.422372 -1.665679 -14.248604 3.961641 -2.530883 -4.258411 -5.513108 4.510558 -4.110395 0.002021 -0.052623 -0.079007 2.725756 0.177246 14.726045 -7.218350 -33.200481 23.383311 36.427837 -50.591802 -14.469657 -83.940778 65.900336 -60.511234 
-5.275319 9.105187 82.443886 -3.865557 0.688650 -103.837488 -1.561790 -5.533055 0.314442 -0.713829 -2.471202 0.193910 -0.713830 -2.471202 0.193909 -0.534504 -1.853631 0.142523 1.589702 -15.166251 -2.676298 1.966738 8.026254 -4.409445 9.693747 8.472454 0.471410 42.665757 -15.158112 -17.449083 -43.482583 -62.782751 107.195045 -63.413491 37.745623 35.291475 -8.862524 4.736706 -5.263398 -40.619647 -14.008662 21.479596 18.131403 -61.453589 -79.643079 37.322906 26.527521 -67.759978 5.426132 -1.664240 -14.222418 3.961704 -2.502633 -4.312966 -5.513737 4.515100 -4.087016 0.001875 -0.055079 -0.070941 2.751075 0.188028 14.744294 -7.260647 -33.205579 23.379664 36.394537 -50.618901 -14.442749 -83.987845 65.922575 -60.575964 
-5.254934 9.107186 82.442238 -3.851538 0.691292 -103.836531 -1.551032 -5.543138 0.306964 -0.709491 -2.475702 0.189440 -0.709491 -2.475702 0.189440 -0.531268 -1.857000 0.139182 1.580226 -15.166237 -2.661590 1.954544 8.026197 -4.385497 9.687513 8.437445 0.481629 42.658438 -15.153295 -17.435192 -43.484044 -62.766276 107.201786 -63.424973 37.756555 35.292243 -8.859068 4.682593 -5.260949 -40.615628 -14.015001 21.429582 18.126562 -61.456020 -79.627397 37.331379 26.536583 -67.752936 5.424483 -1.675028 -14.232133 3.961316 -2.484049 -4.326699 -5.509964 4.525719 -4.052184 0.000409 -0.059019 -0.065536 2.766214 0.185431 14.763182 -7.281231 -33.201912 23.389196 36.405684 -50.631376 -14.468398 -84.039119 65.941638 -60.641855 
-5.232795 9.114103 82.440811 -3.840251 0.698642 -103.828246 -1.546835 -5.555781 0.293821 -0.706487 -2.481006 0.184752 -0.706487 -2.481005 0.184753 -0.529033 -1.860972 0.135673 1.576804 -15.174264 -2.651501 1.952122 8.011308 -4.367855 9.691167 8.408834 0.490490 42.642975 -15.148718 -17.418260 -43.493729 -62.753080 107.213575 -63.436024 37.768955 35.293674 -8.853097 4.644024 -5.264545 -40.611089 -14.037771 21.386861 18.112622 -61.454996 -79.612439 37.342881 26.550076 -67.741618 5.419695 -1.680759 -14.252793 3.959389 -2.472612 -4.316714 -5.509541 4.543539 -4.097914 -0.001255 -0.066734 -0.061889 2.766900 0.184538 14.786443 -7.295906 -33.206983 23.411264 36.441853 -50.610407 -14.501079 -84.074506 65.945278 -60.680657 
-5.216262 9.120173 82.439629 -3.819763 0.701810 -103.835883 -1.540005 -5.561568 0.295579 -0.703882 -2.485487 0.181119 -0.703882 -2.485486 0.181118 -0.527091 -1.864327 0.132954 1.578272 -15.187388 -2.644257 1.957885 7.987030 -4.353653 9.693583 8.384452 0.492044 42.628409 -15.147285 -17.397658 -43.498152 -62.742671 107.224367 -63.443804 37.776909 35.297420 -8.847581 4.606324 -5.276151 -40.608463 -14.060101 21.351875 18.094542 -61.446417 -79.595951 37.361551 26.552663 -67.727343 5.414132 -1.670948 -14.245034 3.960696 -2.475773 -4.308201 -5.513205 4.554188 -4.099213 0.003900 -0.067791 -0.047107 2.766964 0.190533 14.830689 -7.297741 -33.213311 23.420439 36.468241 -50.576209 -14.513787 -84.083440 65.935743 -60.682501 
-5.197208 9.127975 82.439079 -3.808802 0.699638 -103.844250 -1.532480 -5.572618 0.294614 -0.699477 -2.489800 0.178955 -0.699477 -2.489801 0.178955 -0.523797 -1.867558 0.131344 1.581531 -15.204894 -2.639488 1.966170 7.954646 -4.343391 9.690614 8.357916 0.489143 42.612215 -15.144517 -17.377038 -43.504009 -62.733881 107.239844 -63.450067 37.783322 35.299709 -8.840337 4.558753 -5.287088 -40.616570 -14.065701 21.319179 18.076603 -61.433911 -79.569129 37.383207 26.548090 -67.718047 5.415901 -1.672907 -14.246157 3.960792 -2.473106 -4.273640 -5.520617 4.558217 -4.125369 0.008253 -0.067832 -0.035875 2.759235 0.183366 14.860518 -7.294693 -33.214151 23.435776 36.487144 -50.534459 -14.506857 -84.076132 65.912391 -60.657298 
-5.176539 9.132911 82.438789 -3.798620 0.691927 -103.854133 -1.521837 -5.584454 0.294000 -0.695154 -2.493585 0.178860 -0.695154 -2.493585 0.178859 -0.520553 -1.870396 0.131286 1.587522 -15.224271 -2.638047 1.978347 7.918816 -4.338325 9.686807 8.333718 0.489199 42.598971 -15.138926 -17.366647 -43.507236 -62.726934 107.254310 -63.460066 37.792123 35.297035 -8.832135 4.525362 -5.293866 -40.629220 -14.062872 21.293277 18.082531 -61.431855 -79.561199 37.400371 26.537479 -67.703383 5.425657 -1.685119 -14.269809 3.953581 -2.463197 -4.217016 -5.519334 4.563147 -4.153032 0.010556 -0.069671 -0.022048 2.756878 0.170975 14.869149 -7.306924 -33.212666 23.470299 36.499469 -50.484080 -14.486121 -84.054357 65.883042 -60.614445 
